<svg width="216" height="192" viewBox="0 0 216 192" fill="none" xmlns="http://www.w3.org/2000/svg">
<path d="M30.6562 74.6094H185.344C187.372 74.6176 189.375 74.1647 191.202 73.285C193.029 72.4053 194.632 71.1217 195.891 69.5313C197.18 67.9363 198.102 66.0769 198.591 64.0853C199.081 62.0937 199.126 60.0187 198.723 58.0078C195.305 41.8945 184.172 27.1484 167.375 16.5039C150.578 5.85938 129.777 0.390625 108 0.390625C86.2227 0.390625 65.1289 6.15234 48.625 16.5039C32.1211 26.8555 20.6953 41.8945 17.2773 58.0078C16.8743 60.0187 16.9191 62.0937 17.4085 64.0853C17.898 66.0769 18.8201 67.9363 20.1094 69.5313C21.3676 71.1217 22.9708 72.4053 24.798 73.285C26.6251 74.1647 28.6284 74.6176 30.6562 74.6094ZM28.8008 60.4492C34.5625 32.9102 68.6445 12.1094 108 12.1094C147.355 12.1094 181.438 32.9102 187.199 60.4492C187.265 60.753 187.264 61.0675 187.197 61.371C187.13 61.6745 186.997 61.9597 186.809 62.207C186.623 62.4143 186.398 62.5817 186.146 62.6992C185.895 62.8168 185.621 62.8819 185.344 62.8906H30.6562C30.3785 62.8819 30.1054 62.8168 29.8536 62.6992C29.6018 62.5817 29.3765 62.4143 29.1914 62.207C29.003 61.9597 28.8705 61.6745 28.803 61.371C28.7356 61.0675 28.7348 60.753 28.8008 60.4492ZM203.508 125.781L166.594 140.527L129.68 125.781C128.29 125.29 126.773 125.29 125.383 125.781L88.4688 140.527L51.5547 125.781C50.1646 125.29 48.6479 125.29 47.2578 125.781L8.19531 141.406C6.75871 141.993 5.6079 143.118 4.98778 144.54C4.36766 145.963 4.3272 147.571 4.875 149.023C5.30733 150.12 6.06057 151.061 7.03625 151.724C8.01193 152.386 9.16465 152.738 10.3438 152.734C11.0787 152.747 11.8089 152.615 12.4922 152.344L24.0156 147.754V154.688C24.0156 164.53 27.9254 173.968 34.8847 180.928C41.8441 187.887 51.283 191.797 61.125 191.797H154.875C164.717 191.797 174.156 187.887 181.115 180.928C188.075 173.968 191.984 164.53 191.984 154.688V143.066L207.805 136.719C208.523 136.437 209.178 136.016 209.734 135.48C210.289 134.945 210.734 134.305 211.042 133.598C211.351 132.89 211.517 132.129 211.531 131.358C211.545 130.586 211.407 129.82 211.125 129.102C210.843 128.383 210.422 127.728 209.887 127.172C209.351 126.617 208.711 126.172 208.004 125.864C207.297 125.556 206.536 125.39 205.764 125.375C204.993 125.361 204.226 125.499 203.508 125.781ZM180.266 154.688C180.24 161.414 177.557 167.857 172.8 172.613C168.044 177.369 161.601 180.052 154.875 180.078H61.125C54.3989 180.052 47.9556 177.369 43.1995 172.613C38.4434 167.857 35.7601 161.414 35.7344 154.688V143.066L49.4062 137.598L86.3203 152.344C87.7104 152.835 89.2271 152.835 90.6172 152.344L127.531 137.598L164.445 152.344C165.835 152.835 167.352 152.835 168.742 152.344L180.266 147.754V154.688ZM215.422 100C215.422 101.554 214.805 103.044 213.706 104.143C212.607 105.242 211.117 105.859 209.562 105.859H6.4375C4.8835 105.859 3.39314 105.242 2.2943 104.143C1.19545 103.044 0.578125 101.554 0.578125 100C0.578125 98.446 1.19545 96.9556 2.2943 95.8568C3.39314 94.758 4.8835 94.1406 6.4375 94.1406H209.562C211.117 94.1406 212.607 94.758 213.706 95.8568C214.805 96.9556 215.422 98.446 215.422 100Z" fill="white"/>
</svg>
