<svg width="200" height="189" viewBox="0 0 200 189" fill="none" xmlns="http://www.w3.org/2000/svg">
<path d="M167.708 78.5623C171.365 67.9686 172.146 55.2707 172.917 39.8748V26.479H149.417C119.937 26.479 101.333 34.854 90.6667 48.104M16.6667 78.5623H183.333C186.096 78.5623 188.746 79.6598 190.699 81.6133C192.653 83.5668 193.75 86.2163 193.75 88.979V94.1873C193.75 109.812 167.531 152.239 152.083 161.896V172.312C152.083 175.075 150.986 177.725 149.032 179.678C147.079 181.632 144.429 182.729 141.667 182.729H58.3333C55.5707 182.729 52.9211 181.632 50.9676 179.678C49.0141 177.725 47.9167 175.075 47.9167 172.312V161.896C30.3438 150.917 6.25 109.812 6.25 94.1873V88.979C6.25 86.2163 7.34747 83.5668 9.30097 81.6133C11.2545 79.6598 13.904 78.5623 16.6667 78.5623Z" stroke="white" stroke-width="11" stroke-linecap="round" stroke-linejoin="round"/>
<path d="M29.7396 78.6457C28.2765 71.759 27.388 64.7627 27.0833 57.729V47.3123H45.3646C55.5729 47.3123 64.125 48.604 71.1875 50.9582M58.3333 47.3123L68.75 5.64566L110.417 31.6873" stroke="white" stroke-width="11" stroke-linecap="round" stroke-linejoin="round"/>
<path d="M110.417 78.5623V73.354C110.417 66.4473 107.673 59.8235 102.789 54.9397C97.9055 50.056 91.2817 47.3123 84.375 47.3123C77.4683 47.3123 70.8445 50.056 65.9607 54.9397C61.077 59.8235 58.3333 66.4473 58.3333 73.354V78.5623" stroke="white" stroke-width="11" stroke-linecap="round" stroke-linejoin="round"/>
</svg>
